<svg xmlns="http://www.w3.org/2000/svg" width="13.802" height="17.144" viewBox="0 0 13.802 17.144">
  <g id="cart" transform="translate(0.2 0.2)">
    <path id="Path_3" data-name="Path 3" d="M62.2,14.474l-.959-10.8a.461.461,0,0,0-.459-.421H58.809a3.308,3.308,0,0,0-6.615,0H50.221a.459.459,0,0,0-.459.421l-.959,10.8c0,.014,0,.027,0,.041a2.386,2.386,0,0,0,2.513,2.229h8.375A2.386,2.386,0,0,0,62.2,14.515.167.167,0,0,0,62.2,14.474ZM55.5.925a2.386,2.386,0,0,1,2.383,2.332H53.118A2.386,2.386,0,0,1,55.5.925Zm4.188,14.895H51.313a1.475,1.475,0,0,1-1.589-1.284l.918-10.351H52.19v1.4a.462.462,0,1,0,.925,0v-1.4h4.77v1.4a.462.462,0,1,0,.925,0v-1.4h1.548l.921,10.351A1.477,1.477,0,0,1,59.689,15.819Z" transform="translate(-48.8 0)" fill="#e01071" stroke="#e01071" stroke-width="0.4"/>
  </g>
</svg>
