<svg xmlns="http://www.w3.org/2000/svg" width="17.503" height="17.503" viewBox="0 0 17.503 17.503">
  <g id="profile" transform="translate(0.1 0.1)">
    <g id="Group_13" data-name="Group 13" transform="translate(0)">
      <path id="Path_2" data-name="Path 2" d="M14.769,11.186a8.619,8.619,0,0,0-3.288-2.062,5,5,0,1,0-5.66,0A8.665,8.665,0,0,0,0,17.3H1.352a7.3,7.3,0,0,1,14.6,0H17.3A8.6,8.6,0,0,0,14.769,11.186ZM8.652,8.652A3.65,3.65,0,1,1,12.3,5,3.654,3.654,0,0,1,8.652,8.652Z" transform="translate(0)" fill="#e01071" stroke="#e01071" stroke-width="0.2"/>
    </g>
  </g>
</svg>
